<svg width="24" height="24" viewBox="0 0 24 24" fill="none" xmlns="http://www.w3.org/2000/svg">
<path d="M7.09091 16.3077H6.09091H7.09091ZM15.2727 16.3077H16.2727H15.2727ZM10.4045 15.3077C9.85226 15.3077 9.40455 15.7554 9.40455 16.3077C9.40455 16.86 9.85226 17.3077 10.4045 17.3077V15.3077ZM13.4545 7.50769H14.4545H13.4545ZM3 6C2.44772 6 2 6.44772 2 7C2 7.55228 2.44772 8 3 8V6ZM6.80455 17.3077C7.35683 17.3077 7.80455 16.86 7.80455 16.3077C7.80455 15.7554 7.35683 15.3077 6.80455 15.3077V17.3077ZM5.63636 11.6538C5.63636 11.1016 5.18865 10.6538 4.63636 10.6538C4.08408 10.6538 3.63636 11.1016 3.63636 11.6538H5.63636ZM13.4545 8.53846C12.9023 8.53846 12.4545 8.98618 12.4545 9.53846C12.4545 10.0907 12.9023 10.5385 13.4545 10.5385V8.53846ZM19.0445 9.53846L19.0448 8.53846H19.0445V9.53846ZM19.4929 9.83969L20.4117 9.4449L20.4114 9.44434L19.4929 9.83969ZM20.9575 13.248L20.0387 13.6428L20.0392 13.6439L20.9575 13.248ZM21 13.4536H22L22 13.4515L21 13.4536ZM21 15.8H22H21ZM20.5091 16.3077V17.3077V16.3077ZM18.9545 15.3077C18.4023 15.3077 17.9545 15.7554 17.9545 16.3077C17.9545 16.86 18.4023 17.3077 18.9545 17.3077V15.3077ZM8.72727 19C9.43753 19 10.1116 18.7079 10.6032 18.1995L9.16547 16.8092C9.04333 16.9355 8.88499 17 8.72727 17V19ZM10.6032 18.1995C11.0938 17.6922 11.3636 17.0111 11.3636 16.3077H9.36364C9.36364 16.5019 9.2887 16.6818 9.16547 16.8092L10.6032 18.1995ZM11.3636 16.3077C11.3636 15.6043 11.0938 14.9232 10.6032 14.4159L9.16547 15.8062C9.2887 15.9336 9.36364 16.1134 9.36364 16.3077H11.3636ZM10.6032 14.4159C10.1116 13.9075 9.43753 13.6154 8.72727 13.6154V15.6154C8.88499 15.6154 9.04333 15.6799 9.16547 15.8062L10.6032 14.4159ZM8.72727 13.6154C8.01701 13.6154 7.34292 13.9075 6.8513 14.4159L8.28908 15.8062C8.41121 15.6799 8.56955 15.6154 8.72727 15.6154V13.6154ZM6.8513 14.4159C6.36078 14.9232 6.09091 15.6043 6.09091 16.3077H8.09091C8.09091 16.1134 8.16584 15.9336 8.28908 15.8062L6.8513 14.4159ZM6.09091 16.3077C6.09091 17.0111 6.36078 17.6922 6.8513 18.1995L8.28908 16.8092C8.16584 16.6818 8.09091 16.5019 8.09091 16.3077H6.09091ZM6.8513 18.1995C7.34292 18.7079 8.01701 19 8.72727 19V17C8.56955 17 8.41121 16.9355 8.28908 16.8092L6.8513 18.1995ZM16.9091 19C17.6194 19 18.2934 18.7079 18.7851 18.1995L17.3473 16.8092C17.2252 16.9355 17.0668 17 16.9091 17V19ZM18.7851 18.1995C19.2756 17.6922 19.5455 17.0111 19.5455 16.3077H17.5455C17.5455 16.5019 17.4705 16.6818 17.3473 16.8092L18.7851 18.1995ZM19.5455 16.3077C19.5455 15.6043 19.2756 14.9232 18.7851 14.4159L17.3473 15.8062C17.4705 15.9336 17.5455 16.1134 17.5455 16.3077H19.5455ZM18.7851 14.4159C18.2934 13.9075 17.6194 13.6154 16.9091 13.6154V15.6154C17.0668 15.6154 17.2252 15.6799 17.3473 15.8062L18.7851 14.4159ZM16.9091 13.6154C16.1988 13.6154 15.5247 13.9075 15.0331 14.4159L16.4709 15.8062C16.593 15.6799 16.7514 15.6154 16.9091 15.6154V13.6154ZM15.0331 14.4159C14.5426 14.9232 14.2727 15.6043 14.2727 16.3077H16.2727C16.2727 16.1134 16.3477 15.9336 16.4709 15.8062L15.0331 14.4159ZM14.2727 16.3077C14.2727 17.0111 14.5426 17.6922 15.0331 18.1995L16.4709 16.8092C16.3477 16.6818 16.2727 16.5019 16.2727 16.3077H14.2727ZM15.0331 18.1995C15.5247 18.7079 16.1988 19 16.9091 19V17C16.7514 17 16.593 16.9355 16.4709 16.8092L15.0331 18.1995ZM14.4545 16.3077V7.50769H12.4545V16.3077H14.4545ZM14.4545 7.50769C14.4545 7.11847 14.3054 6.73871 14.0297 6.45358L12.5919 7.84382C12.5003 7.74911 12.4545 7.62761 12.4545 7.50769H14.4545ZM14.0297 6.45358C13.7528 6.1673 13.3701 6 12.9636 6V8C12.8176 8 12.6846 7.93968 12.5919 7.84382L14.0297 6.45358ZM12.9636 6H3V8H12.9636V6ZM6.80455 15.3077H5.12727V17.3077H6.80455V15.3077ZM5.12727 15.3077C5.19887 15.3077 5.26894 15.3223 5.33318 15.3498L4.54564 17.1883C4.729 17.2668 4.92674 17.3077 5.12727 17.3077V15.3077ZM5.33318 15.3498C5.39733 15.3773 5.45337 15.4166 5.49904 15.4639L4.06126 16.8541C4.19809 16.9956 4.36237 17.1098 4.54564 17.1883L5.33318 15.3498ZM5.49904 15.4639C5.54464 15.511 5.5791 15.5652 5.60204 15.6225L3.74542 16.3661C3.8177 16.5466 3.92449 16.7127 4.06126 16.8541L5.49904 15.4639ZM5.60204 15.6225C5.62496 15.6797 5.63636 15.7399 5.63636 15.8H3.63636C3.63636 15.9934 3.67316 16.1857 3.74542 16.3661L5.60204 15.6225ZM5.63636 15.8V11.6538H3.63636V15.8H5.63636ZM13.4545 10.5385H19.0445V8.53846H13.4545V10.5385ZM19.0443 10.5385C18.9385 10.5384 18.8376 10.5065 18.7542 10.4505L19.8695 8.79035C19.627 8.62737 19.3404 8.53854 19.0448 8.53846L19.0443 10.5385ZM18.7542 10.4505C18.6712 10.3947 18.6103 10.3186 18.5744 10.235L20.4114 9.44434C20.2983 9.18149 20.1117 8.95305 19.8695 8.79035L18.7542 10.4505ZM18.5741 10.2345L20.0387 13.6428L21.8762 12.8532L20.4117 9.4449L18.5741 10.2345ZM20.0392 13.6439C20.0131 13.5836 20.0001 13.5196 20 13.4558L22 13.4515C21.9996 13.2459 21.9576 13.0419 21.8757 12.8521L20.0392 13.6439ZM20 13.4536V15.8H22V13.4536H20ZM20 15.8C20 15.7399 20.0114 15.6797 20.0343 15.6225L21.8909 16.3661C21.9632 16.1857 22 15.9934 22 15.8H20ZM20.0343 15.6225C20.0573 15.5652 20.0917 15.511 20.1373 15.4639L21.5751 16.8541C21.7119 16.7127 21.8187 16.5466 21.8909 16.3661L20.0343 15.6225ZM20.1373 15.4639C20.183 15.4166 20.239 15.3773 20.3032 15.3498L21.0907 17.1883C21.274 17.1098 21.4383 16.9956 21.5751 16.8541L20.1373 15.4639ZM20.3032 15.3498C20.3674 15.3223 20.4375 15.3077 20.5091 15.3077V17.3077C20.7096 17.3077 20.9074 17.2668 21.0907 17.1883L20.3032 15.3498ZM20.5091 15.3077H18.9545V17.3077H20.5091V15.3077ZM13.4545 17.3077H15.2727V15.3077H13.4545V17.3077ZM10.4045 17.3077H11.9295V15.3077H10.4045V17.3077ZM11.9295 17.3077H13.4545V15.3077H11.9295V17.3077Z" fill="black"/>
</svg>
