<svg width="24" height="24" viewBox="0 0 24 24" fill="none" xmlns="http://www.w3.org/2000/svg">
<path d="M20.6672 11.5361C21.1109 12.1119 21.1109 12.8891 20.6672 13.4639C19.2693 15.2736 15.9156 19 12.0001 19C8.08468 19 4.73097 15.2736 3.33313 13.4639C3.11721 13.1882 3 12.8491 3 12.5C3 12.1509 3.11721 11.8118 3.33313 11.5361C4.73097 9.72636 8.08468 6 12.0001 6C15.9156 6 19.2693 9.72636 20.6672 11.5361V11.5361Z" stroke="black" stroke-width="2" stroke-linecap="round" stroke-linejoin="round"/>
<path d="M12.0003 15.2863C13.5516 15.2863 14.8091 14.0391 14.8091 12.5006C14.8091 10.9621 13.5516 9.71484 12.0003 9.71484C10.4491 9.71484 9.19153 10.9621 9.19153 12.5006C9.19153 14.0391 10.4491 15.2863 12.0003 15.2863Z" stroke="black" stroke-width="2" stroke-linecap="round" stroke-linejoin="round"/>
</svg>
