<svg width="24" height="24" viewBox="0 0 24 24" fill="none" xmlns="http://www.w3.org/2000/svg">
<path d="M3 7.56053V15.1307C3 15.5783 3.27543 15.9757 3.68377 16.1173L11.6838 18.8905C11.889 18.9616 12.111 18.9616 12.3162 18.8905L20.3162 16.1173C20.7246 15.9757 21 15.5783 21 15.1307V7.56053M3 7.56053L11.7324 5.03794C11.9075 4.98735 12.0925 4.98735 12.2676 5.03794L21 7.56053M3 7.56053L11.6838 10.5708C11.889 10.6419 12.111 10.6419 12.3162 10.5708L16.5 9.12047M21 7.56053L16.5 9.12047M16.5 9.12047V12.7603M12 10.6804V19" stroke="black" stroke-width="2" stroke-linecap="round" stroke-linejoin="round"/>
</svg>
