<svg width="24" height="24" viewBox="0 0 24 24" fill="none" xmlns="http://www.w3.org/2000/svg">
<path fill-rule="evenodd" clip-rule="evenodd" d="M5 5C3.34315 5 2 6.34315 2 8V11V16C2 17.6569 3.34315 19 5 19H19C20.6569 19 22 17.6569 22 16V11V8C22 6.34315 20.6569 5 19 5H5ZM20 10V8C20 7.44772 19.5523 7 19 7H5C4.44772 7 4 7.44772 4 8V10H20ZM4 12H20V16C20 16.5523 19.5523 17 19 17H5C4.44772 17 4 16.5523 4 16V12ZM14 14C13.4477 14 13 14.4477 13 15C13 15.5523 13.4477 16 14 16H17.1579C17.7102 16 18.1579 15.5523 18.1579 15C18.1579 14.4477 17.7102 14 17.1579 14H14Z" fill="black"/>
</svg>
