<svg width="24" height="24" viewBox="0 0 24 24" fill="none" xmlns="http://www.w3.org/2000/svg">
<path d="M12 22C17.5228 22 22 17.5228 22 12C22 6.47715 17.5228 2 12 2C6.47715 2 2 6.47715 2 12C2 17.5228 6.47715 22 12 22Z" stroke="black" stroke-width="2"/>
<path fill-rule="evenodd" clip-rule="evenodd" d="M11.4329 8.15497C11.2923 8.26628 11.1217 8.48125 10.8926 8.93482C10.6436 9.4278 10.0421 9.6256 9.54916 9.37662C9.05618 9.12764 8.85838 8.52616 9.10736 8.03318C9.37828 7.49675 9.70768 6.96972 10.192 6.58653C10.7112 6.17574 11.3163 6 12 6C13.8671 6 15 7.50818 15 8.978C15 9.68899 14.8036 10.293 14.3272 10.8585C13.9969 11.2505 13.5419 11.6088 13 11.9832V13C13 13.5523 12.5523 14 12 14C11.4477 14 11 13.5523 11 13V10.9128L11.4491 10.6164C12.2083 10.1154 12.5907 9.81552 12.7977 9.56977C12.9463 9.39346 13 9.25601 13 8.978C13 8.46982 12.6248 8 12 8C11.6836 8 11.5388 8.07126 11.4329 8.15497Z" fill="black"/>
<circle cx="12" cy="16" r="1" fill="black"/>
</svg>
