<svg width="24" height="24" viewBox="0 0 24 24" fill="none" xmlns="http://www.w3.org/2000/svg">
<rect x="3" y="6" width="5" height="2" rx="1" fill="black"/>
<rect x="3" y="11" width="5" height="2" rx="1" fill="black"/>
<rect x="3" y="16" width="9" height="2" rx="1" fill="black"/>
<path fill-rule="evenodd" clip-rule="evenodd" d="M14 7C12.3431 7 11 8.34315 11 10C11 11.6569 12.3431 13 14 13C15.6569 13 17 11.6569 17 10C17 8.34315 15.6569 7 14 7ZM9 10C9 7.23858 11.2386 5 14 5C16.7614 5 19 7.23858 19 10C19 12.7614 16.7614 15 14 15C11.2386 15 9 12.7614 9 10Z" fill="black"/>
<path d="M18.364 12.7071L17.6569 12L16.2426 13.4142L16.9498 14.1213L18.364 12.7071ZM20.1317 17.3033C20.5223 17.6938 21.1554 17.6938 21.5459 17.3033C21.9365 16.9128 21.9365 16.2796 21.5459 15.8891L20.1317 17.3033ZM16.9498 14.1213L20.1317 17.3033L21.5459 15.8891L18.364 12.7071L16.9498 14.1213Z" fill="black"/>
</svg>
