<svg width="24" height="24" viewBox="0 0 24 24" fill="none" xmlns="http://www.w3.org/2000/svg">
<path d="M12 22C17.523 22 22 17.523 22 12C22 6.477 17.523 2 12 2C6.477 2 2 6.477 2 12C2 17.523 6.477 22 12 22Z" stroke="black" stroke-width="2" stroke-linecap="round" stroke-linejoin="round"/>
<path d="M15 8.5C14.315 7.815 13.109 7.339 12 7.309M12 7.309C10.68 7.273 9.5 7.87 9.5 9.5C9.5 12.5 15 11 15 14C15 15.711 13.536 16.446 12 16.391M12 7.309V5.5M9 15C9.644 15.86 10.843 16.35 12 16.391M12 16.391V18.5" stroke="black" stroke-width="2" stroke-linecap="round" stroke-linejoin="round"/>
</svg>
