<svg width="24" height="24" viewBox="0 0 24 24" fill="none" xmlns="http://www.w3.org/2000/svg">
<path fill-rule="evenodd" clip-rule="evenodd" d="M22 22H18V15.001C18 13.081 17.153 12.0098 15.634 12.0098C13.981 12.0098 13 13.126 13 15.001V22H9.00002V9H13V10.4619C13 10.4619 14.255 8.25977 17.083 8.25977C19.912 8.25977 22 9.98611 22 13.5581V22ZM4.44202 6.9209C4.12007 6.91972 3.8015 6.85529 3.50451 6.73096C3.20753 6.60663 2.93795 6.42483 2.71118 6.19629C2.48441 5.96775 2.30488 5.69686 2.18286 5.39893C2.06084 5.10099 1.9987 4.78192 2.00002 4.45996C1.99884 4.13809 2.06106 3.81931 2.18314 3.52148C2.30522 3.22366 2.48477 2.95255 2.71153 2.72412C2.93829 2.49569 3.20783 2.31421 3.50474 2.18994C3.80166 2.06568 4.12015 2.00118 4.44202 2C5.0919 2.00265 5.71412 2.2633 6.17186 2.72461C6.62961 3.18592 6.88541 3.81009 6.88302 4.45996C6.88446 4.78187 6.82246 5.10099 6.70055 5.39893C6.57864 5.69686 6.3992 5.96774 6.17251 6.19629C5.94581 6.42484 5.6763 6.60662 5.37938 6.73096C5.08245 6.8553 4.76393 6.91972 4.44202 6.9209ZM2.00002 22H7.00002V9H2.00002V22Z" fill="black"/>
</svg>
