<svg width="24" height="24" viewBox="0 0 24 24" fill="none" xmlns="http://www.w3.org/2000/svg">
<path d="M12 2.5C17.5138 2.5 22 6.12923 22 10.591C22 12.3769 21.3062 13.9847 19.8562 15.5687C17.7587 17.9766 13.0675 20.9091 12 21.3578C10.9625 21.794 11.0825 21.1123 11.13 20.8431L11.1337 20.8206L11.2762 19.9669C11.31 19.7127 11.345 19.3176 11.2437 19.0659C11.1312 18.7879 10.6887 18.6434 10.3637 18.5736C5.5575 17.9417 2 14.5904 2 10.591C2 6.12923 6.4875 2.5 12 2.5ZM8.2775 12.0791H6.37125V8.62932C6.37125 8.57797 6.35088 8.5287 6.31458 8.49228C6.27828 8.45585 6.229 8.43522 6.1775 8.43489H5.475C5.44939 8.43489 5.42404 8.43992 5.40038 8.44969C5.37672 8.45946 5.35522 8.47378 5.33711 8.49184C5.31901 8.50989 5.30464 8.53132 5.29484 8.55491C5.28504 8.5785 5.28 8.60378 5.28 8.62932V12.9739C5.28 13.025 5.30125 13.0736 5.335 13.1073V13.1085L5.3375 13.111L5.34 13.1135C5.37625 13.1483 5.42471 13.1675 5.475 13.1671H8.2775C8.385 13.1671 8.47125 13.0799 8.47125 12.9727V12.2748C8.47141 12.2492 8.46653 12.2239 8.45689 12.2003C8.44724 12.1766 8.43301 12.1551 8.41502 12.1369C8.39703 12.1187 8.37562 12.1043 8.35203 12.0944C8.32843 12.0844 8.30311 12.0792 8.2775 12.0791ZM9.26625 8.43489C9.21453 8.43489 9.16493 8.45538 9.12836 8.49184C9.09179 8.5283 9.07125 8.57775 9.07125 8.62932V12.9739C9.07125 13.0811 9.15875 13.1671 9.26625 13.1671H9.96875C10.0763 13.1671 10.1625 13.0799 10.1625 12.9739V8.62932C10.1625 8.57797 10.1421 8.5287 10.1058 8.49228C10.0695 8.45585 10.0203 8.43522 9.96875 8.43489H9.26625ZM14.095 8.43489C14.0433 8.43489 13.9937 8.45538 13.9571 8.49184C13.9205 8.5283 13.9 8.57775 13.9 8.62932V11.2092L11.9037 8.52213C11.8987 8.51559 11.8933 8.50935 11.8875 8.50344V8.50219C11.8835 8.49783 11.8794 8.49367 11.875 8.48973L11.8713 8.48599C11.867 8.4819 11.8624 8.47815 11.8575 8.47477H11.8562L11.85 8.46979L11.8462 8.4673C11.8443 8.46584 11.8422 8.46459 11.84 8.46356L11.83 8.45733H11.8275L11.8237 8.45483L11.8112 8.44985L11.8062 8.44736C11.8022 8.44588 11.798 8.44463 11.7937 8.44362H11.7913L11.7875 8.44237L11.7762 8.43988H11.7687L11.765 8.43863H11.76L11.7575 8.43739H11.04C10.9885 8.43738 10.9391 8.4577 10.9026 8.49389C10.866 8.53008 10.8453 8.57921 10.845 8.63056V12.9752C10.845 13.0824 10.9325 13.1684 11.04 13.1684H11.74C11.8488 13.1684 11.9362 13.0811 11.9362 12.9752V10.3953L13.9362 13.0873C13.9495 13.1059 13.9661 13.1219 13.985 13.1347L13.9862 13.1359L13.9987 13.1434L14.0037 13.1459C14.007 13.1478 14.0103 13.1495 14.0138 13.1509L14.0225 13.1546L14.0287 13.1571C14.0329 13.1585 14.037 13.1598 14.0413 13.1609H14.045C14.0613 13.1655 14.0781 13.168 14.095 13.1684H14.795C14.9038 13.1684 14.9912 13.0811 14.9912 12.9752V8.62932C14.9912 8.57775 14.9707 8.5283 14.9341 8.49184C14.8976 8.45538 14.848 8.43489 14.7963 8.43489H14.095ZM18.8637 9.32849V8.63056C18.8639 8.60503 18.859 8.57972 18.8494 8.55607C18.8397 8.53241 18.8255 8.51089 18.8075 8.49272C18.7895 8.47455 18.7681 8.46009 18.7445 8.45017C18.7209 8.44025 18.6956 8.43506 18.67 8.43489H15.8675C15.8171 8.43495 15.7686 8.45463 15.7325 8.48973H15.7312L15.73 8.49222L15.7275 8.49596C15.6926 8.53167 15.6729 8.57945 15.6725 8.62932V12.9739C15.6725 13.025 15.6937 13.0736 15.7275 13.1073L15.73 13.111L15.7325 13.1135C15.7688 13.1482 15.8172 13.1674 15.8675 13.1671H18.67C18.7775 13.1671 18.8637 13.0799 18.8637 12.9727V12.2748C18.8639 12.2492 18.859 12.2239 18.8494 12.2003C18.8397 12.1766 18.8255 12.1551 18.8075 12.1369C18.7895 12.1187 18.7681 12.1043 18.7445 12.0944C18.7209 12.0844 18.6956 12.0792 18.67 12.0791H16.7625V11.345H18.6688C18.7763 11.345 18.8625 11.2578 18.8625 11.1506V10.4527C18.8627 10.4271 18.8578 10.4018 18.8481 10.3782C18.8385 10.3545 18.8243 10.333 18.8063 10.3148C18.7883 10.2966 18.7669 10.2822 18.7433 10.2723C18.7197 10.2623 18.6944 10.2572 18.6688 10.257H16.7625V9.52292H18.6688C18.7763 9.52292 18.8625 9.43567 18.8625 9.32849H18.8637Z" fill="black"/>
</svg>
