<svg width="24" height="24" viewBox="0 0 24 24" fill="none" xmlns="http://www.w3.org/2000/svg">
<path d="M20 20H4C3.44772 20 3 19.5523 3 19V5C3 4.44772 3.44771 4 4 4H8.68476C8.97187 4 9.24513 4.1234 9.43497 4.33879L11.4819 6.66121C11.6717 6.8766 11.945 7 12.2321 7H20C20.5523 7 21 7.44772 21 8V19C21 19.5523 20.5523 20 20 20Z" stroke="black" stroke-width="2" stroke-linejoin="round"/>
<path d="M14.6259 10L15.6343 12.4245L18.0576 12.6688L16.2576 14.3427L16.8668 16.8969L14.6259 15.5281L12.385 16.8969L12.9942 14.3427L11 12.6344L13.6175 12.4245L14.6259 10Z" fill="black"/>
</svg>
