<svg width="24" height="24" viewBox="0 0 24 24" fill="none" xmlns="http://www.w3.org/2000/svg">
<path d="M12 22C17.523 22 22 17.523 22 12C22 6.477 17.523 2 12 2C6.477 2 2 6.477 2 12C2 17.523 6.477 22 12 22Z" stroke="black" stroke-width="2" stroke-linecap="round" stroke-linejoin="round"/>
<path d="M15 9.20101C14.4265 8.62755 13.6959 8.23701 12.9005 8.07879C12.1051 7.92057 11.2806 8.00178 10.5313 8.31213C9.78204 8.62249 9.14163 9.14806 8.69106 9.82239C8.24049 10.4967 8 11.2895 8 12.1005C8 12.9115 8.24049 13.7043 8.69106 14.3786C9.14163 15.0529 9.78204 15.5785 10.5313 15.8889C11.2806 16.1992 12.1051 16.2804 12.9005 16.1222C13.6959 15.964 14.4265 15.5735 15 15" stroke="black" stroke-width="2" stroke-linecap="round"/>
</svg>
