<svg width="24" height="24" viewBox="0 0 24 24" fill="none" xmlns="http://www.w3.org/2000/svg">
<path d="M2.99998 12C2.99998 14.2038 3.80855 16.3309 5.27241 17.9783C6.73627 19.6256 8.75366 20.6786 10.9421 20.9376C13.1306 21.1966 15.3381 20.6437 17.1461 19.3836C18.954 18.1235 20.2369 16.2439 20.7513 14.101C21.2658 11.9581 20.9761 9.70097 19.9373 7.75742C18.8984 5.81388 17.1826 4.31903 15.115 3.55627C13.0475 2.79351 10.7719 2.81585 8.71975 3.61906C6.66757 4.42227 4.98141 5.95051 3.98093 7.91408M3.98093 7.91408L3.98092 2.99999M3.98093 7.91408L8 7.91408" stroke="black" stroke-width="2" stroke-linecap="round" stroke-linejoin="round"/>
<path d="M12 8V12H15" stroke="black" stroke-width="2" stroke-linecap="round" stroke-linejoin="round"/>
</svg>
